<svg width="98" height="57" xmlns="http://www.w3.org/2000/svg"><g fill="none" fill-rule="evenodd"><path d="M28 37c-.4.2-.7.3-1.1.5.2.4.4.7.6 1.1.4-.2.8-.4 1.1-.6-.2-.3-.4-.7-.6-1" fill="#E4DF1F"/><path d="M3.8 24.2L.5 21.6s3.1-4.9 8.6-4.4c0 0 4.7.2 6.2 4 0 0 1.6 5.1-2.1 8.4 0 0-6 5.2-8.3 6.5l2.8-1.2H16V39H.3v-3.9l8.7-7c1.8-1.5 3.2-4.5 1-6.3-.6-.5-1.3-.7-2.2-.5-1.7.3-3.2 1.9-4 2.9M44.9 21.4v-3.9h14.4V21l-5.4 5.3s4.5.5 5.6 4.7c1.2 4.8-3 8.8-8 8.4 0 0-4.3.2-7.7-3.8l3-2.9s2.2 2.9 5.4 2.5c0 0 2.8 0 2.9-2.5.2-3.2-3.7-3.4-6.1-3.1l-.7-2.9 6.9-6.9-2.7 1.6h-7.6zM72.6 17c6.2 0 11.3 5 11.3 11.2 0 6.2-5.1 11.2-11.3 11.2-6.2 0-11.3-5-11.3-11.2C61.4 22 66.4 17 72.6 17m0 4.3c3.6 0 6.5 3.1 6.5 6.9 0 3.8-2.9 6.9-6.5 6.9s-6.5-3.1-6.5-6.9c0-3.8 3-6.9 6.5-6.9" fill="#9E9EA0"/><path d="M30.7 18.9l.8-.8c-.3-.3-.5-.6-.8-.9-.3.3-.6.6-.8.9l.8.8" fill="#E4DF1F"/><path d="M30.7 15.7l1.1-1.1c-.4-.4-.7-.9-1.1-1.3-.4.4-.8.8-1.1 1.3l1.1 1.1" fill="#8FC640"/><path d="M32.3 17.5c.4-.3.7-.5 1.1-.8-.3-.4-.5-.8-.8-1.2-.4.3-.8.6-1.1.9.2.4.5.8.8 1.1" fill="#9E9EA0"/><path d="M34.5 21.1c-.1-.3-.3-.6-.4-.9.3-.1.7-.2 1-.3.1.3.3.6.4 1-.3 0-.7.1-1 .2" fill="#56C6D0"/><path d="M33.1 21.6c-.1-.2-.3-.5-.5-.7.3-.1.5-.3.8-.4.2.3.3.5.4.8-.2.1-.5.2-.7.3M33.6 19.3c-.2-.3-.4-.7-.6-1 .4-.2.7-.4 1.1-.6.2.4.4.8.6 1.1-.4.2-.7.4-1.1.5" fill="#8FC640"/><path d="M32 20.1c-.2-.3-.5-.5-.7-.8l.9-.6c.2.3.4.6.7.9-.3.2-.6.4-.9.5" fill="#56C6D0"/><path d="M29.1 17.5c.3-.3.5-.7.8-1-.4-.3-.7-.6-1.1-.9-.3.4-.5.8-.8 1.2.4.2.8.5 1.1.7" fill="#174991"/><path d="M30.7 37.5l.8.8c-.3.3-.5.6-.8.9-.3-.3-.6-.6-.8-.9.2-.3.5-.6.8-.8" fill="#25B8EB"/><path d="M30.7 40.7l1.1 1.1c-.4.4-.7.9-1.1 1.3-.4-.4-.8-.8-1.1-1.3.4-.4.7-.8 1.1-1.1" fill="#E4DF1F"/><path d="M32.3 38.8c.4.3.7.5 1.1.8-.3.4-.5.8-.8 1.2-.4-.3-.8-.6-1.1-.9.2-.4.5-.7.8-1.1" fill="#56C6D0"/><path d="M29.1 38.8c.3.3.5.7.8 1-.4.3-.7.6-1.1.9-.3-.4-.5-.8-.8-1.2.4-.2.8-.4 1.1-.7" fill="#8FC640"/><path d="M36.1 20.5c.4-.1.7-.1 1.1-.1 0-.4-.1-.8-.2-1.2-.4.1-.8.1-1.2.2.2.4.2.8.3 1.1" fill="#E4DF1F"/><path d="M38 18c.5-.1 1-.2 1.6-.2 0-.6-.1-1.1-.2-1.7-.6.1-1.1.2-1.7.4.1.4.2 1 .3 1.5" fill="#25B8EB"/><path d="M38.2 20.4h1.3V19c-.5 0-1 0-1.5.1.1.4.2.8.2 1.3" fill="#56C6D0"/><path d="M38.2 22.6c0-.4.1-.8.1-1.2.4 0 .8.1 1.2.2-.1.4-.1.8-.2 1.3-.3-.1-.7-.2-1.1-.3" fill="#9E9EA0"/><path d="M36.5 22.4c0-.3-.1-.7-.1-1 .4 0 .7 0 1.1.1v1.1c-.4-.2-.7-.2-1-.2" fill="#8FC640"/><path d="M34.9 22.4c-.1-.3-.2-.5-.3-.8.3-.1.6-.1.9-.1.1.3.1.6.2.9-.2-.1-.5-.1-.8 0" fill="#9E9EA0"/><path d="M35.6 18.6c.4-.1.8-.2 1.3-.3-.1-.5-.2-.9-.4-1.4-.4.2-.9.3-1.3.5.1.3.3.7.4 1.2" fill="#174991"/><path d="M25.3 35.7c.1.4.1.7.2 1.1-.4.1-.8.2-1.2.2-.1-.4-.1-.8-.2-1.2.5 0 .8 0 1.2-.1" fill="#E4DF1F"/><path d="M25.1 34c0 .3.1.7.1 1-.4 0-.7 0-1.1-.1v-1.1c.3.1.7.1 1 .2M23.5 38.3l.3 1.5c-.6.2-1.1.3-1.7.4-.1-.6-.1-1.1-.2-1.7.5 0 1.1-.1 1.6-.2" fill="#25B8EB"/><path d="M25.8 37.7c.1.4.3.8.5 1.3-.4.2-.9.3-1.3.5-.1-.5-.3-.9-.4-1.4.4-.1.8-.2 1.2-.4" fill="#56C6D0"/><path d="M29.7 36.1c-.3.2-.6.3-.8.5l.6.9.9-.6c-.2-.3-.5-.6-.7-.8M28.8 34.9c-.3.1-.5.2-.8.3.1.3.3.5.5.8.3-.1.6-.3.8-.4-.2-.3-.3-.5-.5-.7" fill="#9E9EA0"/><path d="M27.1 35.4c-.3.1-.7.2-1 .2.1.3.3.7.4 1 .4-.1.7-.2 1.1-.4-.2-.2-.3-.5-.5-.8" fill="#174991"/><path d="M26.6 34h-.8c0 .3.1.6.2.9.3 0 .6-.1.9-.1-.1-.3-.2-.5-.3-.8M23.3 35.9c0 .4 0 .9.1 1.3-.5.1-1 .1-1.5.1v-1.4h1.4" fill="#8FC640"/><path d="M39.6 25.1c.3.2.7.4 1 .6.2-.4.4-.7.6-1.1-.4-.2-.7-.4-1.1-.5-.2.4-.4.7-.5 1" fill="#E4DF1F"/><path d="M36.3 23.9c.3.1.5.1.8.2 0-.3.1-.6.1-.9-.3-.1-.6-.1-.9-.2v.9" fill="#8FC640"/><path d="M38 24.4c.3.1.6.3 1 .4.1-.3.2-.7.3-1-.4-.1-.7-.2-1.1-.3-.1.3-.1.6-.2.9" fill="#25B8EB"/><path d="M42.6 24.2c.5.2.9.5 1.4.7l.9-1.5c-.5-.2-1-.5-1.6-.7-.2.5-.5 1-.7 1.5" fill="#174991"/><path d="M41.4 26.2c.4.3.7.5 1.1.8.3-.4.6-.7.9-1.1-.4-.3-.8-.5-1.2-.8-.3.4-.6.8-.8 1.1" fill="#8FC640"/><path d="M40.4 23.2c.4.1.8.3 1.2.5.2-.4.4-.9.5-1.4-.4-.1-.9-.3-1.4-.4-.1.5-.2.9-.3 1.3M21.9 31c-.2.3-.3.7-.5 1-.4-.2-.7-.3-1.1-.5.2-.4.4-.7.6-1.1.3.3.7.5 1 .6" fill="#56C6D0"/><path d="M23.8 28.1c-.2.2-.4.4-.5.7-.2-.2-.4-.4-.6-.7.2-.2.4-.5.6-.7.1.2.3.5.5.7" fill="#8FC640"/><path d="M22.8 29.5c-.2.3-.4.6-.5.9-.3-.2-.6-.4-.8-.7.2-.3.4-.6.7-.9.1.3.3.5.6.7" fill="#E4DF1F"/><path d="M18.9 32.1c-.2.5-.5.9-.7 1.4-.5-.2-1.1-.4-1.6-.7l.9-1.5c.5.3.9.5 1.4.8" fill="#56C6D0"/><path d="M21.1 33c-.1.4-.3.9-.4 1.3-.5-.1-.9-.2-1.4-.4.2-.5.3-.9.5-1.4.5.2.9.3 1.3.5" fill="#E4DF1F"/><path d="M25.3 32.4c-.3-.1-.5-.1-.8-.2 0 .3-.1.6-.1.9.3.1.6.1.9.2-.1-.3-.1-.6 0-.9M23.3 33.7c-.4-.1-.8-.2-1.1-.3-.1.4-.1.8-.2 1.2.4.1.8.1 1.3.2-.1-.4 0-.8 0-1.1" fill="#9E9EA0"/><path d="M23.6 31.9c-.3-.1-.7-.3-1-.4-.1.3-.2.7-.3 1 .4.1.7.2 1.1.3 0-.2.1-.6.2-.9" fill="#8FC640"/><path d="M24 30.4c-.2-.2-.5-.3-.7-.5-.1.3-.3.5-.4.8.3.2.5.3.8.5.1-.2.2-.5.3-.8" fill="#174991"/><path d="M20.2 30c-.2.4-.5.7-.7 1.1-.4-.2-.8-.5-1.2-.8.3-.4.6-.8.9-1.1.2.3.6.5 1 .8" fill="#25B8EB"/><path d="M39.7 30.9c.2.3.3.7.5 1 .4-.2.7-.3 1.1-.5-.2-.4-.4-.7-.6-1.1-.4.3-.7.4-1 .6" fill="#174991"/><path d="M38.6 26.8c.2.2.5.4.7.7l.6-.9c-.3-.2-.5-.4-.8-.7-.1.3-.3.6-.5.9" fill="#9E9EA0"/><path d="M37.7 28c.2.2.4.4.5.7.2-.2.4-.4.6-.7-.2-.2-.4-.4-.6-.7-.1.2-.3.5-.5.7" fill="#56C6D0"/><path d="M40 28.2c.3.3.5.6.8.9l.9-.9-.9-.9c-.2.3-.5.6-.8.9" fill="#E4DF1F"/><path d="M38.8 29.4c.2.3.4.6.5.9.3-.2.6-.4.8-.7-.2-.3-.4-.6-.7-.9-.1.3-.4.5-.6.7" fill="#174991"/><path d="M42.7 31.9c.2.5.5.9.7 1.4.5-.2 1.1-.4 1.6-.7l-.9-1.5c-.5.3-.9.6-1.4.8" fill="#25B8EB"/><path d="M37.5 26c.2.1.5.3.7.4.1-.3.2-.6.3-.8-.3-.1-.5-.3-.8-.4 0 .2-.1.5-.2.8" fill="#8FC640"/><path d="M40.5 32.8c.1.4.3.8.4 1.3.5-.1.9-.2 1.4-.4-.2-.5-.3-.9-.5-1.4-.5.2-.9.4-1.3.5M41.4 29.8c.3.4.5.7.7 1.1.4-.2.8-.5 1.2-.8-.3-.4-.6-.7-.9-1.1-.3.3-.6.6-1 .8" fill="#56C6D0"/><path d="M21.9 25.3c-.3.2-.7.4-1 .6-.2-.3-.4-.7-.6-1.1.4-.2.7-.4 1.1-.5.2.3.4.6.5 1" fill="#25B8EB"/><path d="M18.9 24.3c-.5.2-.9.5-1.4.8l-.9-1.5c.5-.3 1-.5 1.6-.7.2.5.5 1 .7 1.4" fill="#56C6D0"/><path d="M20.2 26.4c-.4.3-.7.5-1.1.8-.3-.4-.6-.7-.9-1.1.4-.3.8-.6 1.2-.8.3.3.5.7.8 1.1" fill="#8FC640"/><path d="M21.5 28.2c-.3-.3-.5-.6-.8-.9l-.9.9.9.9c.3-.3.5-.6.8-.9" fill="#174991"/><path d="M22.7 26.9c-.2-.3-.4-.6-.5-.9-.3.2-.6.4-.8.7.2.3.4.6.7.9.2-.2.4-.4.6-.7" fill="#56C6D0"/><path d="M21.1 23.4c-.4.1-.8.3-1.2.5-.2-.4-.4-.9-.5-1.4.4-.1.9-.3 1.4-.4.1.4.2.9.3 1.3" fill="#174991"/><path d="M36.3 35.6c-.1.4-.1.7-.2 1.1.4.1.8.2 1.2.2.1-.4.1-.8.1-1.2-.3 0-.7 0-1.1-.1" fill="#8FC640"/><path d="M38 31.7c.1.3.1.6.2.9.3-.1.7-.2 1-.3-.1-.3-.2-.7-.3-1-.3.1-.6.2-.9.4" fill="#E4DF1F"/><path d="M36.5 32.1v.8c.3-.1.6-.1.9-.2 0-.3-.1-.6-.1-.9-.2.2-.5.2-.8.3" fill="#56C6D0"/><path d="M38.3 33.6c0 .4.1.8.1 1.2.4-.1.8-.1 1.2-.2-.1-.4-.1-.8-.2-1.3-.4.1-.7.2-1.1.3" fill="#8FC640"/><path d="M36.5 33.9c0 .3 0 .7-.1 1 .4 0 .7 0 1.1-.1v-1.1c-.3.1-.6.2-1 .2" fill="#9E9EA0"/><path d="M38.2 38.2l-.3 1.5c.6.1 1.1.3 1.7.4.1-.6.1-1.1.2-1.7-.6-.1-1.1-.1-1.6-.2" fill="#8FC640"/><path d="M37.5 30.3c.1.3.2.5.3.8.3-.1.5-.3.8-.5-.1-.3-.3-.5-.4-.8-.2.2-.5.4-.7.5" fill="#9E9EA0"/><path d="M35.9 37.7c-.1.4-.3.8-.4 1.3.4.2.9.3 1.3.5.1-.5.3-.9.4-1.4-.5-.2-.9-.3-1.3-.4" fill="#56C6D0"/><path d="M31.9 36.1c.3.2.6.3.8.5l-.6.9-.9-.6c.3-.3.5-.6.7-.8" fill="#E4DF1F"/><path d="M32.8 34.8c.3.1.5.2.8.3-.1.3-.3.5-.4.8-.3-.1-.6-.2-.8-.4.1-.2.3-.4.4-.7M33.7 37c.4.2.7.3 1.1.4-.2.4-.4.8-.6 1.1-.4-.2-.8-.4-1.1-.6l.6-.9" fill="#9E9EA0"/><path d="M34.5 35.4c.3.1.7.2 1 .2-.1.3-.2.7-.4 1-.4-.1-.7-.2-1.1-.3.2-.3.4-.6.5-.9" fill="#8FC640"/><path d="M30.8 35.2c.2.2.4.4.7.5-.2.2-.4.4-.7.6l-.6-.6c.2-.1.4-.3.6-.5" fill="#174991"/><path d="M35 33.9h.8c0 .3-.1.6-.2.9-.3 0-.6-.1-.9-.1.1-.2.2-.5.3-.8" fill="#9E9EA0"/><path d="M38.4 35.8c0 .4 0 .9-.1 1.3.5 0 1 .1 1.5.1 0-.5 0-.9-.1-1.4h-1.3" fill="#174991"/><path d="M25.3 20.6c-.4-.1-.7-.1-1.1-.1 0-.4.1-.8.1-1.2.4.1.8.1 1.2.2 0 .4-.1.7-.2 1.1M29.6 20.3c-.3-.2-.6-.3-.8-.5l.6-.9.9.6c-.2.2-.5.5-.7.8" fill="#E4DF1F"/><path d="M28.7 21.5c-.3-.1-.5-.2-.8-.3.1-.3.3-.5.4-.8.3.1.6.2.8.4-.1.2-.2.5-.4.7" fill="#9E9EA0"/><path d="M27.9 19.4c-.4-.2-.7-.3-1.1-.4.2-.4.4-.8.6-1.1.4.2.8.4 1.1.6-.3.2-.5.5-.6.9" fill="#25B8EB"/><path d="M27.1 20.9c-.3-.1-.7-.2-1-.2.1-.3.2-.7.4-1 .4.1.7.2 1.1.3-.3.3-.4.6-.5.9M23.5 18.1c-.5-.1-1-.1-1.6-.2 0-.6.1-1.1.2-1.7.6.1 1.1.2 1.7.4-.2.4-.3.9-.3 1.5M30.7 21.1c-.2-.2-.4-.4-.7-.5.2-.2.4-.4.7-.6l.6.6c-.1.2-.3.3-.6.5" fill="#8FC640"/><path d="M23.3 20.4H22c0-.5-.1-.9-.1-1.4.5 0 1 0 1.5.1-.1.5-.1.9-.1 1.3" fill="#9E9EA0"/><path d="M23.6 24.7c-.1-.3-.1-.6-.2-.9-.3.1-.7.2-1 .3.1.3.2.7.3 1 .3-.2.6-.3.9-.4" fill="#E4DF1F"/><path d="M25 24.2v-.8c-.3.1-.6.1-.9.2 0 .3.1.6.1.9.3-.1.6-.2.8-.3M23.3 22.7c0-.4-.1-.8-.1-1.2-.4.1-.8.1-1.2.2.1.4.1.8.2 1.3.3-.1.7-.2 1.1-.3" fill="#8FC640"/><path d="M25 22.4c0-.3 0-.7.1-1-.4 0-.7 0-1.1.1v1.1c.4-.1.7-.1 1-.2" fill="#56C6D0"/><path d="M24.1 26c-.1-.3-.2-.5-.3-.8-.3.1-.5.3-.8.5.1.3.3.5.4.8.2-.2.4-.3.7-.5" fill="#9E9EA0"/><path d="M26.6 22.4c.1-.3.2-.5.2-.8-.3 0-.6-.1-.9-.1-.1.3-.1.6-.2.9h.9" fill="#174991"/><path d="M25.8 18.6c-.4-.1-.8-.2-1.3-.3.1-.5.2-.9.4-1.4.4.1.9.3 1.3.5-.1.4-.3.8-.4 1.2" fill="#56C6D0"/><path d="M.4 56.5v-4.3H1v2.2l2.2-2.2H4L2 54l1.9 2.6h-.8l-1.5-2.2-.7.7v1.5H.4v-.1zm78.5 0l1.7-4.3h.6l1.8 4.3h-.7l-.5-1.3H80l-.5 1.3h-.6zm1.2-1.7h1.5l-.5-1.2c-.1-.4-.2-.7-.3-.9-.1.3-.1.6-.2.8l-.5 1.3zm-2.3-2.6h.6v4.3h-.6v-4.3zm-4.2 4.3v-4.3h1.6c.3 0 .6 0 .8.1.2.1.4.2.5.4.1.2.2.4.2.6 0 .2 0 .4-.2.5-.1.2-.3.3-.5.4.3.1.5.2.6.4.1.2.2.4.2.7 0 .2 0 .4-.1.6-.1.2-.2.3-.3.4-.1.1-.3.2-.5.2s-.4.1-.7.1h-1.6v-.1zm.6-2.5h.9c.3 0 .4 0 .5-.1.1 0 .3-.1.3-.2.1-.1.1-.2.1-.4 0-.1 0-.3-.1-.4-.1-.1-.2-.2-.3-.2-.1 0-.3-.1-.7-.1H74V54h.2zm0 2h1.5c.1 0 .2-.1.3-.1.1-.1.2-.1.2-.2.1-.1.1-.2.1-.4s0-.3-.1-.4l-.3-.3c-.1 0-.4-.1-.6-.1h-1V56h-.1zm-5.1.5l1.7-4.3h.6l1.8 4.3h-.7l-.5-1.3h-1.8l-.5 1.3h-.6zm1.2-1.7h1.5l-.5-1.2c-.1-.4-.2-.7-.3-.9-.1.3-.1.6-.2.8l-.5 1.3zm-5.1 1.7v-4.3h1.9c.4 0 .7 0 .9.1.2.1.4.2.5.4.1.2.2.4.2.7 0 .3-.1.6-.3.8-.2.2-.5.3-.9.4.2.1.3.1.3.2.2.2.3.3.5.6l.8 1.2h-.7l-.6-.9c-.2-.3-.3-.5-.4-.6l-.3-.3c-.1-.1-.2-.1-.3-.1h-1v1.9h-.6v-.1zm.6-2.4H67c.3 0 .5 0 .6-.1.1-.1.3-.1.3-.3.1-.1.1-.2.1-.4s-.1-.4-.2-.5c-.1-.1-.4-.2-.7-.2h-1.4v1.5h.1zm-5.1 2.4l1.7-4.3h.6l1.8 4.3h-.7l-.5-1.3h-1.8l-.5 1.3h-.6zm1.2-1.7h1.5l-.5-1.2c-.1-.4-.2-.7-.3-.9-.1.3-.1.6-.2.8l-.5 1.3zm-3.7-2.6h.6v4.3h-.6v-4.3zm-4.5 4.3v-4.3h1.5c.3 0 .6 0 .8.1.2.1.5.2.6.3.2.2.4.4.5.7.1.3.2.6.2 1 0 .3 0 .6-.1.9-.1.3-.2.5-.3.6-.1.2-.3.3-.4.4-.1.1-.3.2-.5.2s-.4.1-.7.1h-1.6zm.6-.5h.9c.3 0 .5 0 .7-.1.2-.1.3-.1.4-.2.1-.1.2-.3.3-.6.1-.2.1-.5.1-.8 0-.5-.1-.8-.2-1-.1-.2-.3-.4-.5-.5-.2-.1-.4-.1-.7-.1h-.9V56h-.1zm-2.1-3.8h.6v2.5c0 .4 0 .8-.1 1-.1.3-.3.5-.5.6-.3.2-.6.2-1 .2s-.7-.1-1-.2c-.3-.1-.4-.3-.6-.6-.1-.3-.2-.6-.2-1.1v-2.5h.6v2.5c0 .4 0 .7.1.8.1.2.2.3.4.4.2.1.4.1.6.1.4 0 .7-.1.9-.3.2-.2.3-.6.3-1.1v-2.3h-.1zm-7.4 4.3l1.7-4.3h.6l1.8 4.3h-.7l-.5-1.3h-1.8l-.5 1.3h-.6zm1.2-1.7h1.5l-.5-1.2c-.1-.4-.2-.7-.3-.9-.1.3-.1.6-.2.8l-.5 1.3zm-5 .3h.5c0 .2.1.4.2.5.1.1.2.3.4.3.2.1.4.1.7.1.2 0 .4 0 .6-.1.2-.1.3-.2.4-.3.1-.1.1-.2.1-.4 0-.1 0-.3-.1-.4-.1-.1-.2-.2-.4-.3-.1 0-.4-.1-.8-.2s-.7-.2-.8-.3c-.2-.1-.4-.2-.5-.4-.1-.2-.2-.3-.2-.5s.1-.4.2-.6c.1-.2.3-.3.5-.4.2-.1.5-.1.8-.1.3 0 .6.1.9.2.2.1.4.3.6.5.1.2.2.4.2.7h-.6c0-.3-.1-.5-.3-.6-.2-.1-.4-.2-.8-.2-.3 0-.6.1-.8.2-.2.1-.2.3-.2.5s.1.3.2.4c.1.1.4.2.9.3.5.1.8.2 1 .3.3.1.4.3.6.4.1.2.2.4.2.6 0 .2-.1.4-.2.7-.1.2-.3.4-.6.5-.2.1-.5.2-.8.2-.4 0-.7-.1-1-.2-.3-.1-.5-.3-.6-.5-.2-.3-.3-.6-.3-.9zm-5.2 1.4v-4.3h2.9v.5h-2.4V54h2v.5h-2v2h-.5zm-4.9-2.1c0-.7.2-1.3.6-1.7.4-.4.9-.6 1.5-.6.4 0 .8.1 1.1.3.3.2.6.5.7.8.2.3.3.7.3 1.2 0 .4-.1.8-.3 1.2-.2.3-.4.6-.8.8-.3.2-.7.3-1.1.3-.4 0-.8-.1-1.1-.3-.3-.2-.6-.5-.7-.8-.1-.4-.2-.8-.2-1.2zm.6 0c0 .5.1.9.4 1.2.3.3.6.5 1.1.5.4 0 .8-.2 1.1-.5.3-.3.4-.7.4-1.3 0-.4-.1-.7-.2-.9-.1-.3-.3-.5-.5-.6-.2-.1-.5-.2-.8-.2-.4 0-.8.1-1.1.4-.2.3-.4.8-.4 1.4zm-7.2 2.1v-4.3h.9l1 3.1c.1.3.2.5.2.6 0-.2.1-.4.2-.7l1-3h.8v4.3h-.6v-3.6l-1.3 3.6H26l-1.3-3.7v3.7h-.4zm-4.9-2.1c0-.7.2-1.3.6-1.7.4-.4.9-.6 1.5-.6.4 0 .8.1 1.1.3.3.2.6.5.7.8.2.3.3.7.3 1.2 0 .4-.1.8-.3 1.2-.2.3-.4.6-.8.8-.3.2-.7.3-1.1.3-.4 0-.8-.1-1.1-.3-.3-.2-.6-.5-.7-.8-.1-.4-.2-.8-.2-1.2zm.6 0c0 .5.1.9.4 1.2.3.3.6.5 1.1.5.4 0 .8-.2 1.1-.5.3-.3.4-.7.4-1.3 0-.4-.1-.7-.2-.9-.1-.3-.3-.5-.5-.6-.2-.1-.5-.2-.8-.2-.4 0-.8.1-1.1.4-.2.3-.4.8-.4 1.4zm-4.8 2.1v-4.3h1.5c.3 0 .6 0 .8.1.2.1.5.2.6.3.2.2.4.4.5.7.1.3.2.6.2 1 0 .3 0 .6-.1.9-.1.3-.2.5-.3.6-.1.2-.3.3-.4.4-.1.1-.3.2-.5.2s-.4.1-.7.1h-1.6zm.6-.5h.9c.3 0 .5 0 .7-.1.2-.1.3-.1.4-.2.1-.1.2-.3.3-.6.1-.2.1-.5.1-.8 0-.5-.1-.8-.2-1-.1-.2-.3-.4-.5-.5-.2-.1-.4-.1-.7-.1h-.9V56h-.1zm-3.3-1.2v-.5h1.8v1.6c-.3.2-.6.4-.9.5-.3.1-.6.2-.9.2-.4 0-.8-.1-1.2-.3-.3-.2-.6-.4-.8-.8-.2-.3-.3-.7-.3-1.2 0-.4.1-.8.3-1.2.2-.4.4-.6.8-.8.3-.2.7-.3 1.1-.3.3 0 .6.1.9.2.3.1.5.2.6.4.1.2.3.4.3.7l-.5.1c-.1-.2-.1-.4-.2-.5-.1-.1-.2-.2-.4-.3-.2-.1-.4-.1-.6-.1-.3 0-.5 0-.7.1-.2.1-.3.2-.5.3-.1.1-.2.3-.3.4-.1.3-.2.6-.2.9 0 .4.1.7.2 1 .1.3.3.5.6.6.3.1.5.2.8.2.2 0 .5 0 .7-.1.2-.1.4-.2.5-.3v-.8h-1.1zm-6.4 1.7v-4.3h.6L9 55.6v-3.4h.6v4.3H9l-2.3-3.4v3.4h-.6zm-1.6-4.3h.6v4.3h-.6v-4.3zM30.8 22.2c.1.2.3.6.3.9 0 0 .6-1 1.8-.2 0 0-1-.1-1.3.4 0 0 1.6-.4 1.9 1.1 0 0-.7-.8-1.4-.7 0 0 1.5.5 1.1 2.1 0 0-.1-1.4-1.2-1.6 0 0 1 .8.6 2.4 0 0 0-1.2-.7-1.7 0 0 .5 1.2-.3 2.3 0 0 .4-1.4-.3-1.9 0 0-.3-.2-.3.3 0 0-.1 2.9.1 4.4 0 0 2.9-2.5 5.5-.8 0 0-2.5-1.2-5.4 1.5l1.9 1.7c.1-.1.2-.2.4-.2.3 0 .5.2.5.5 0 .6-.9.6-1.2.2l-2-1.9-2 1.9c-.3.4-1.2.4-1.2-.2 0-.3.2-.5.5-.5.2 0 .3.1.4.2l1.9-1.7C27.5 28 25 29.2 25 29.2c2.5-1.7 5.5.8 5.5.8.1-1.4.1-4.4.1-4.4 0-.5-.3-.3-.3-.3-.7.5-.3 1.9-.3 1.9-.8-1.1-.3-2.3-.3-2.3-.7.6-.7 1.7-.7 1.7-.4-1.6.6-2.4.6-2.4-1 .2-1.2 1.6-1.2 1.6-.4-1.6 1.1-2.1 1.1-2.1-.7-.1-1.4.7-1.4.7.3-1.5 1.9-1.1 1.9-1.1-.2-.5-1.3-.4-1.3-.4 1.2-.8 1.8.2 1.8.2 0-.3.2-.7.3-.9M4.3 50.4h.6v-.6h-.6v.6zM3 44.3h-.6v.6H3v-.6zm2.3 6.1h.6v-.6h-.6v.6zm-3.2-6.1h-.6v.6h.6v-.6zM9.2 46c-.1-.2-.3-.3-.5-.4-.2-.1-.4-.1-.6-.1h-.4v.5h.5c.1 0 .2 0 .4.1.1.1.2.1.3.2.1.1.1.2.2.3v2H6.6v.5h3.1V47c0-.2 0-.4-.1-.6-.2-.1-.3-.3-.4-.4zm21.1 3.2h.5v-4.9h-.5v4.9zm-2.2-.5h-.9c-.3 0-.6 0-.8-.1-.2-.1-.3-.2-.4-.4 0-.1.1-.3.1-.5V46h-.5v1.8c0 .3-.1.6-.3.8-.2.2-.4.3-.8.3-.2 0-.3 0-.4-.1-.1 0-.2-.1-.3-.2-.1-.1-.2-.2-.2-.3-.1-.1-.1-.2-.1-.4V46H23v1.9c0 .2 0 .3-.1.4 0 .1-.1.2-.2.3-.1.1-.2.1-.3.2-.1 0-.2.1-.3.1H21v-2.8h-.5v2.8h-2.8l.9-2.3c-.1-.1-.3-.2-.5-.4-.2-.1-.3-.2-.5-.3-.2-.1-.4-.2-.5-.2-.2 0-.4-.1-.5-.1-.2 0-.4 0-.5.1-.1.1-.4.1-.5.2-.2.1-.3.2-.5.3-.2.1-.3.2-.5.4l1 2.3h-1.9v-3.1h-.9c-.3 0-.6 0-.9.1-.3.1-.5.2-.7.4-.2.2-.4.4-.5.6-.1.2-.2.5-.2.7 0 .3.1.6.2.8.1.2.3.4.5.6.2.1.4.3.7.3.3.1.6.1.9.1h.3v.1c0 .3-.1.5-.2.6-.2.1-.4.2-.7.2h-.5c-.1 0-.3-.1-.5-.2l-.2.5c.2.1.4.1.5.2.2 0 .3.1.5.1.5 0 .9-.1 1.2-.4.2-.2.4-.6.4-1v-.1h8.5c.3 0 .5-.1.7-.2.2-.1.4-.3.5-.5.1.2.3.4.5.5.2.1.5.2.8.2.3 0 .6-.1.8-.2.2-.1.4-.3.5-.5 0 .1.1.2.2.2l.2.2c.1.1.2.1.4.1h2v-4.9h-.5v4.4h-.1zm13.2 1.7h.6v-.6h-.6v.6zm5.3-1.7l-.8-2.1c.2-.2.4-.3.6-.4.2-.1.5-.1.7-.1.2 0 .5 0 .7.1.3.1.5.2.6.4l-.9 2.1h-.9zm3.9 0h-2.3l1-2.3c-.1-.1-.3-.2-.5-.4-.2-.1-.3-.2-.5-.3-.2-.1-.3-.1-.5-.2-.2 0-.4-.1-.5-.1-.2 0-.4 0-.5.1-.2 0-.4.1-.5.2-.2.1-.3.2-.5.3-.2.1-.3.2-.5.4 1 2.2 1 2.3 1 2.3h-2v-3.2h-.5v4.2c0 .1 0 .2-.1.2 0 .1-.1.1-.2.1H43l-.1.5c.2 0 .3.1.4.1.2 0 .4 0 .5-.1.1-.1.2-.1.3-.3.1-.1.1-.3.2-.4v-.7h7v-4.9h-.5v4.5h-.3zm-11.2 1.7h.6v-.6h-.6v.6zM36 48.7h-.5c-.2 0-.4 0-.6-.1-.2-.1-.3-.1-.5-.3-.1-.1-.2-.2-.3-.4-.1-.2-.1-.4-.1-.5 0-.2 0-.4.1-.5.1-.1.2-.3.3-.4.1-.1.3-.2.5-.3.2-.1.4-.1.5-.1h.5v2.6h.1zm5.8-3.2h-.5v3.2h-2v-3.2h-.5v3.2h-2.2v-3.2h-.9c-.3 0-.6.1-.9.1-.3.1-.5.2-.7.4-.2.2-.4.4-.5.6-.1.2-.2.5-.2.7 0 .3.1.6.2.8.1.2.3.4.5.6.2.1.4.2.7.3.3.1.5.1.9.1h6.2v-3.6h-.1zm-3.4 4.9h.6v-.6h-.6v.6zm-1.9-6H36v.6h.6v-.6h-.1zm-.9 0H35v.6h.6v-.6zm17 4.8h.5v-4.9h-.5v4.9zm24.3-.5c-.1.2-.2.3-.3.5-.1.1-.3.2-.4.3-.2.1-.4.1-.6.1-.2 0-.4 0-.6-.1-.2-.1-.3-.2-.4-.3-.1-.1-.2-.3-.3-.5-.1-.2-.1-.4-.1-.5 0-.2 0-.4.1-.6.1-.2.2-.3.3-.5.1-.1.3-.2.4-.3.2-.1.4-.1.6-.1.2 0 .4 0 .6.1.2.1.3.2.5.3.1.1.2.3.3.5.1.2.1.4.1.6-.1.2-.1.4-.2.5zm-5.3 0c-.1.2-.2.3-.3.5-.1.1-.3.2-.5.3-.2.1-.4.1-.6.1-.2 0-.4 0-.6-.1-.2-.1-.3-.2-.4-.3-.1-.1-.2-.3-.3-.5-.1-.2-.1-.4-.1-.5 0-.2 0-.4.1-.6.1-.2.2-.3.3-.5.1-.1.3-.2.4-.3.2-.1.4-.1.6-.1.2 0 .4 0 .6.1.2.1.3.2.5.3.1.1.2.3.3.5.1.2.1.4.1.6 0 .2 0 .4-.1.5zm-13.2.3h-.5c-.2 0-.4 0-.6-.1-.2-.1-.3-.1-.5-.3-.1-.1-.2-.2-.3-.4-.1-.2-.1-.4-.1-.5 0-.2 0-.4.1-.5.1-.1.2-.3.3-.4.1-.1.3-.2.5-.3.2-.1.4-.1.5-.1h.5V49h.1zm20.9 0h-1.9c.1-.3.2-.5.2-.8 0-.3-.1-.5-.2-.8-.1-.2-.2-.5-.4-.6-.2-.2-.4-.3-.6-.4-.2-.1-.5-.1-.8-.1-.3 0-.5 0-.8.1-.2.1-.4.2-.6.4-.2.2-.3.4-.4.6-.1.2-.2.5-.2.8v.4c0 .1.1.2.1.4H72c.1-.3.2-.5.2-.8 0-.3-.1-.5-.2-.8-.1-.2-.2-.5-.4-.6-.2-.2-.4-.3-.6-.4-.2-.1-.5-.1-.8-.1-.3 0-.5 0-.8.1-.2.1-.4.2-.6.4-.2.2-.3.4-.4.6-.1.2-.1.5-.1.8v.4c0 .1.1.2.1.4h-1.7v-4.3h-.5V49h-1.7v-.8c0-.2 0-.4-.1-.6-.1-.2-.1-.4-.3-.5-.1-.1-.3-.3-.5-.4-.2-.1-.4-.1-.7-.1h-2.4l1-2h-.6l-1 1.9c0 .1 0 .2.1.3 0 .1.1.2.2.2H63c.2 0 .3 0 .4.1.1 0 .2.1.3.2.1.1.1.2.2.3V48.8h-5v-3.2H58c-.3 0-.6.1-.9.1-.3.1-.5.2-.7.4-.2.2-.3.4-.4.6-.1.2-.2.5-.2.7 0 .3.1.6.2.8.1.2.3.4.5.6.2.1.4.2.7.3.3.1.6.1.9.1h10.8c.2.2.4.4.6.5.3.1.5.2.8.2.3 0 .6 0 .8-.2.3-.1.5-.2.6-.5h2.4c.2.2.4.4.6.5.3.1.5.2.8.2.3 0 .6 0 .8-.2.3-.1.5-.2.6-.5h2.8v-4.9h-.5V49h.1zm2.1.5h.5v-4.9h-.5v4.9zM58 44.7h-.6v.6h.6v-.6zm.9 0h-.6v.6h.6v-.6zm-53.2.8h-.5v3.1H3v-3.1h-.9c-.3 0-.6 0-.9.1-.3.1-.5.2-.7.4-.2.2-.3.4-.4.6-.1.2-.2.5-.2.7 0 .3.1.6.2.8.1.2.3.4.5.6.2.1.4.3.7.3.3.1.6.1.9.1h3.6v-3.6h-.1zm-3.2 3.2H2c-.2 0-.4 0-.6-.1-.2-.1-.3-.1-.5-.3-.1-.1-.2-.2-.3-.4-.1-.2-.1-.3-.1-.5s0-.4.1-.5c.1-.2.2-.3.3-.4.1-.1.3-.2.5-.3.2-.1.4-.1.5-.1h.5v2.6h.1zm10.5 0h-.5c-.2 0-.4 0-.6-.1-.2-.1-.3-.1-.5-.3-.1-.1-.3-.2-.3-.4-.1-.2-.1-.3-.1-.5s0-.4.1-.5c.1-.2.2-.3.3-.4.1-.1.3-.2.5-.3.2-.1.4-.1.6-.1h.5v2.6zm3 0l-.9-2.1c.2-.2.4-.3.6-.4.2-.1.4-.1.7-.1.2 0 .5 0 .7.1.2.1.4.2.6.4l-.8 2.1H16zM67.1 12.9h.9v.9h-.9v-.9zm1.9 0h.9v.9H69v-.9zM50.4 2.2h-.9v-.9h.9v.9zM73 8.8c.4.3.8.4 1.2.6.5.1 1 .2 1.5.2h.2l.3-.7v.9c0 .5-.2.8-.4 1.1-.3.2-.7.3-1.2.3-.3 0-.5 0-.8-.1-.2-.1-.5-.1-.8-.3l-.3.9c.4.1.7.2 1 .3.3.1.6.1.8.1.9 0 1.6-.2 2-.6.4-.4.6-1 .6-1.7V3.3h-1.5c-.6 0-1.1.1-1.6.2-.5.2-.9.4-1.2.7-.4.3-.6.6-.8 1-.2.4-.3.8-.3 1.3s.1 1 .3 1.4c.3.3.6.6 1 .9zm0-3.4c.1-.3.3-.5.6-.7.2-.2.5-.4.8-.5.3-.1.6-.2.9-.2h1.5l-.5.3v4.2h-1c-.4 0-.7 0-1-.1-.3-.1-.6-.3-.8-.4-.2-.2-.4-.4-.5-.7-.1-.3-.2-.6-.2-.9-.1-.4 0-.7.2-1zM52.3 2.2h-.9v-.9h.9v.9zm27.3 9.9c-.3 0-.5 0-.8-.1l.2-.9c.1 0 .2 0 .3.1h.2c.2 0 .3 0 .4-.1.1 0 .2-.1.3-.2.1-.1.1-.3.1-.5V3.2h.9v6.5c0 .4 0 .7-.1 1-.1.3-.2.5-.3.8-.1.2-.3.4-.5.5-.1 0-.4.1-.7.1zM49.7 12h1.9v-.7s0 .1.1.1c.1.2.3.4.6.5.2.1.5.2.8.2h17.1V3.3h-.9v7.9H53.1c-.2 0-.3 0-.5-.1-.1-.1-.2-.1-.3-.3-.1-.1-.1-.3-.2-.5V3.1h-2.5c-2.6 0-4.4 2-4.4 4.4.2 2.4 1.9 4.5 4.5 4.5zm-3.3-4.5c0-1.9 1.4-3.5 3.3-3.5h2.2l-.6.3v5.3c0 .4 0 .7.1 1 0 .2.1.3.1.5h-1.8c-1.9-.1-3.3-1.6-3.3-3.6zM76.1.2h.8v.7h-.7c-.2 0-.3.1-.3.3v.3h1.2v.7h-2v-1c0-.5.5-1 1-1zM40.5 3.1h1v8.8h-.8L34.5 4l.5 1.3v6.6h-1V3.1h.9l6 7.6-.4-1.1V3.1zM3.9 11.9L.1 3h1.1l.5 1.3 2.6 6.2.3.6-.1-1 3-7.2h1.1l-3.8 8.9h-.9v.1zm16.8-8.8h1v8.8h-1V3.1zm10.7 4.4c0 2-1.4 3.6-3.4 3.6s-3.5-1.6-3.5-3.6 1.4-3.6 3.4-3.6c2-.1 3.5 1.6 3.5 3.6zm-3.5-4.6c-2.7 0-4.5 2.1-4.5 4.5s1.8 4.5 4.5 4.5 4.5-2.1 4.5-4.5-1.8-4.5-4.5-4.5zm-8.8 6.6c0 1.5-1.3 2.5-3 2.5-1.4 0-2.5-.5-3.6-1.4l.6-.7c.9.8 1.8 1.2 3 1.2s2-.6 2-1.5c0-.8-.4-1.3-2.3-1.7-2-.4-2.9-1.1-2.9-2.5S14.1 3 15.8 3c1.3 0 2.2.4 3.1 1.1l-.6.8c-.8-.7-1.6-1-2.5-1-1.1 0-1.9.6-1.9 1.4 0 .8.5 1.3 2.4 1.7 1.9.4 2.8 1.1 2.8 2.5zM11 11.9h-1V3.1h1v8.8z" fill="#9E9EA0"/></g></svg>